Jinko-Bold-print.ufo
<glyph name="exclam" format="1">
  <advance width="639"/>
  <unicode hex="0021"/>
  <outline>
    <contour>
      <point x="530" y="-39" type="line"/>
      <point x="526" y="70"/>
      <point x="522" y="178"/>
      <point x="519" y="286" type="curve"/>
      <point x="394" y="283"/>
      <point x="269" y="280"/>
      <point x="144" y="278" type="curve"/>
      <point x="148" y="250"/>
      <point x="152" y="223"/>
      <point x="156" y="195" type="curve"/>
      <point x="155" y="117"/>
      <point x="154" y="40"/>
      <point x="154" y="-39" type="curve"/>
    </contour>
    <contour>
      <point x="527" y="1479" type="line"/>
      <point x="144" y="1479" type="line"/>
      <point x="218" y="409" type="line"/>
      <point x="453" y="409" type="line"/>
    </contour>
  </outline>
</glyph>
<glyph name="quotedbl" format="1">
  <advance width="944"/>
  <unicode hex="0022"/>
  <outline>
    <contour>
      <point x="431" y="1523" type="line"/>
      <point x="120" y="1523" type="line"/>
      <point x="166" y="1011" type="line"/>
      <point x="384" y="1011" type="line"/>
    </contour>
    <contour>
      <point x="824" y="1523" type="line"/>
      <point x="513" y="1523" type="line"/>
      <point x="559" y="1011" type="line"/>
      <point x="777" y="1011" type="line"/>
    </contour>
  </outline>
</glyph>
<glyph name="quotesingle" format="1">
  <advance width="564"/>
  <unicode hex="0027"/>
  <outline>
    <contour>
      <point x="437" y="1523" type="line"/>
      <point x="127" y="1523" type="line"/>
      <point x="173" y="1011" type="line"/>
      <point x="391" y="1011" type="line"/>
    </contour>
  </outline>
</glyph>
<glyph name="five" format="1">
  <advance width="1244"/>
  <unicode hex="0035"/>
  <outline>
    <contour>
      <point x="560" y="272" type="curve"/>
      <point x="388.041" y="262.447"/>
      <point x="186.164" y="381.225"/>
      <point x="189" y="411" type="curve"/>
      <point x="88" y="411" type="line"/>
      <point x="90" y="311"/>
      <point x="95" y="215"/>
      <point x="102" y="120" type="curve"/>
      <point x="202" y="32"/>
      <point x="365" y="-24"/>
      <point x="591" y="-24" type="curve" smooth="yes"/>
      <point x="817" y="-24"/>
      <point x="975" y="58"/>
      <point x="1064" y="168" type="curve" smooth="yes"/>
      <point x="1135" y="255"/>
      <point x="1168" y="358"/>
      <point x="1168" y="509" type="curve" smooth="yes"/>
      <point x="1168" y="855"/>
      <point x="965" y="989"/>
      <point x="668" y="989" type="curve" smooth="yes"/>
      <point x="624" y="989"/>
      <point x="556" y="978"/>
      <point x="500" y="958" type="curve"/>
      <point x="500" y="1196" type="line"/>
      <point x="1123" y="1196" type="line"/>
      <point x="1123" y="1479" type="line"/>
      <point x="142" y="1479" type="line"/>
      <point x="142" y="652" type="line"/>
      <point x="252" y="644" type="line"/>
      <point x="322" y="683"/>
      <point x="412" y="713"/>
      <point x="509" y="713" type="curve" smooth="yes"/>
      <point x="645" y="713"/>
      <point x="788" y="660"/>
      <point x="788" y="504" type="curve" smooth="yes"/>
      <point x="788" y="382"/>
      <point x="744" y="289"/>
      <point x="617" y="276" type="curve" smooth="yes"/>
      <point x="597" y="273"/>
      <point x="579" y="272"/>
    </contour>
  </outline>
</glyph>
<glyph name="seven" format="1">
  <advance width="1244"/>
  <unicode hex="0037"/>
  <outline>
    <contour>
      <point x="1174" y="1192" type="line"/>
      <point x="1174" y="1479" type="line"/>
      <point x="108" y="1479" type="line"/>
      <point x="108" y="1119" type="line"/>
      <point x="331" y="1119" type="line"/>
      <point x="331" y="1196" type="line"/>
      <point x="767" y="1196" type="line"/>
      <point x="148" y="0" type="line"/>
      <point x="573" y="0" type="line"/>
    </contour>
  </outline>
</glyph>
<glyph name="colon" format="1">
  <advance width="635"/>
  <unicode hex="003A"/>
  <outline>
    <contour>
      <point x="535" y="162" type="curve"/>
      <point x="538" y="301"/>
      <point x="468" y="396"/>
      <point x="350" y="413" type="curve"/>
      <point x="210" y="416"/>
      <point x="119" y="341"/>
      <point x="101" y="224" type="curve"/>
      <point x="98" y="84"/>
      <point x="167" y="-7"/>
      <point x="286" y="-24" type="curve"/>
      <point x="426" y="-28"/>
      <point x="517" y="43"/>
    </contour>
    <contour>
      <point x="535" y="851" type="curve" smooth="yes"/>
      <point x="535" y="896" type="line"/>
      <point x="526" y="1018"/>
      <point x="444" y="1097"/>
      <point x="312" y="1097" type="curve"/>
      <point x="184" y="1099"/>
      <point x="106" y="1022"/>
      <point x="101" y="902" type="curve" smooth="yes"/>
      <point x="101" y="857" type="line"/>
      <point x="110" y="735"/>
      <point x="192" y="660"/>
      <point x="324" y="660" type="curve"/>
      <point x="451" y="658"/>
      <point x="529" y="731"/>
    </contour>
  </outline>
</glyph>
<glyph name="equal" format="1">
  <advance width="1588"/>
  <unicode hex="003D"/>
  <outline>
    <contour>
      <point x="1408" y="242" type="line"/>
      <point x="1408" y="491" type="line"/>
      <point x="181" y="491" type="line"/>
      <point x="181" y="242" type="line"/>
    </contour>
    <contour>
      <point x="1408" y="728" type="line"/>
      <point x="1408" y="977" type="line"/>
      <point x="181" y="977" type="line"/>
      <point x="181" y="728" type="line"/>
    </contour>
  </outline>
</glyph>
<glyph name="at" format="1">
  <advance width="1824"/>
  <unicode hex="0040"/>
  <outline>
    <contour>
      <point x="693.869" y="618.754" type="curve" smooth="yes"/>
      <point x="693.869" y="812.454"/>
      <point x="808.734" y="974"/>
      <point x="968" y="974" type="curve" smooth="yes"/>
      <point x="1041" y="974"/>
      <point x="1107" y="929"/>
      <point x="1150" y="871" type="curve"/>
      <point x="1104" y="419" type="line"/>
      <point x="1034.01" y="384.333"/>
      <point x="962.525" y="367"/>
      <point x="897" y="367" type="curve" smooth="yes"/>
      <point x="781.013" y="367"/>
      <point x="693.869" y="452.484"/>
    </contour>
    <contour>
      <point x="1599.1" y="725.898" type="curve" smooth="yes"/>
      <point x="1599.1" y="561.846"/>
      <point x="1555.58" y="338.702"/>
      <point x="1397.16" y="338.702" type="curve" smooth="yes"/>
      <point x="1320.23" y="338.702"/>
      <point x="1300.91" y="379.046"/>
      <point x="1300.91" y="441.394" type="curve" smooth="yes"/>
      <point x="1300.91" y="462.343"/>
      <point x="1303.09" y="485.777"/>
      <point x="1306" y="511" type="curve" smooth="yes"/>
      <point x="1374" y="1107" type="line"/>
      <point x="1188" y="1107" type="line"/>
      <point x="1178" y="1044" type="line"/>
      <point x="1128.91" y="1077.46"/>
      <point x="1078.36" y="1142.24"/>
      <point x="930.253" y="1142.24" type="curve" smooth="yes"/>
      <point x="680.225" y="1142.24"/>
      <point x="492" y="902.57"/>
      <point x="492" y="605" type="curve" smooth="yes"/>
      <point x="492" y="400.682"/>
      <point x="632.756" y="213.794"/>
      <point x="852.125" y="213.794" type="curve" smooth="yes"/>
      <point x="950.284" y="213.794"/>
      <point x="1080.27" y="251.923"/>
      <point x="1136" y="320" type="curve"/>
      <point x="1170.92" y="226"/>
      <point x="1248.41" y="189"/>
      <point x="1363" y="189" type="curve" smooth="yes"/>
      <point x="1612" y="189"/>
      <point x="1782" y="402"/>
      <point x="1782" y="744" type="curve" smooth="yes"/>
      <point x="1782" y="1177"/>
      <point x="1451" y="1491"/>
      <point x="981" y="1491" type="curve" smooth="yes"/>
      <point x="486" y="1491"/>
      <point x="122" y="1147"/>
      <point x="122" y="667" type="curve" smooth="yes"/>
      <point x="122" y="192"/>
      <point x="475" y="-142"/>
      <point x="982" y="-142" type="curve" smooth="yes"/>
      <point x="1143" y="-142"/>
      <point x="1322" y="-88"/>
      <point x="1459" y="11" type="curve"/>
      <point x="1410" y="134" type="line"/>
      <point x="1284" y="65"/>
      <point x="1134" y="29"/>
      <point x="982" y="29" type="curve" smooth="yes"/>
      <point x="588" y="29"/>
      <point x="310" y="287"/>
      <point x="310" y="665" type="curve" smooth="yes"/>
      <point x="310" y="1033"/>
      <point x="577" y="1317"/>
      <point x="986" y="1317" type="curve" smooth="yes"/>
      <point x="1351.85" y="1317"/>
      <point x="1599.1" y="1074.42"/>
    </contour>
  </outline>
</glyph>
<glyph name="A" format="1">
  <advance width="1404"/>
  <unicode hex="0041"/>
  <outline>
    <contour>
      <point x="849" y="553" type="line"/>
      <point x="549" y="553" type="line"/>
      <point x="698" y="1030" type="line"/>
      <point x="699" y="1030" type="line"/>
    </contour>
    <contour>
      <point x="-13" y="0" type="line"/>
      <point x="376" y="0" type="line"/>
      <point x="465" y="282" type="line"/>
      <point x="933" y="282" type="line"/>
      <point x="1021" y="0" type="line"/>
      <point x="1417" y="0" type="line"/>
      <point x="894" y="1479" type="line"/>
      <point x="509" y="1479" type="line"/>
    </contour>
  </outline>
</glyph>
<glyph name="C" format="1">
  <advance width="1325"/>
  <unicode hex="0043"/>
  <outline>
    <contour>
      <point x="863.193" y="259.652" type="curve" smooth="yes"/>
      <point x="581.28" y="259.652"/>
      <point x="464" y="425.653"/>
      <point x="464" y="737" type="curve" smooth="yes"/>
      <point x="464" y="1040.9"/>
      <point x="590.668" y="1213.43"/>
      <point x="858.558" y="1213.43" type="curve" smooth="yes"/>
      <point x="1065.73" y="1213.43"/>
      <point x="1214" y="1096"/>
      <point x="1214" y="1096" type="curve"/>
      <point x="1289" y="1388" type="line"/>
      <point x="1152.31" y="1458.4"/>
      <point x="1011.04" y="1499.02"/>
      <point x="822.521" y="1499.02" type="curve" smooth="yes"/>
      <point x="311.694" y="1499.02"/>
      <point x="70" y="1231.06"/>
      <point x="70" y="740" type="curve" smooth="yes"/>
      <point x="70" y="252.593"/>
      <point x="316.235" y="-26"/>
      <point x="816" y="-26" type="curve" smooth="yes"/>
      <point x="1009.25" y="-26"/>
      <point x="1141.27" y="18.3333"/>
      <point x="1290" y="103" type="curve"/>
      <point x="1224" y="377" type="line"/>
      <point x="1224" y="377"/>
      <point x="1053.34" y="259.652"/>
    </contour>
  </outline>
</glyph>
<glyph name="G" format="1">
  <advance width="1472"/>
  <unicode hex="0047"/>
  <outline>
    <contour>
      <point x="464" y="745" type="curve" smooth="yes"/>
      <point x="464" y="1048.61"/>
      <point x="578.4" y="1209.93"/>
      <point x="875.498" y="1209.93" type="curve" smooth="yes"/>
      <point x="1090.57" y="1209.93"/>
      <point x="1273.31" y="1077.01"/>
      <point x="1272" y="1075" type="curve" smooth="yes"/>
      <point x="1347" y="1353" type="line"/>
      <point x="1198.12" y="1443"/>
      <point x="1076.5" y="1503"/>
      <point x="806" y="1503" type="curve" smooth="yes"/>
      <point x="324.054" y="1503"/>
      <point x="70" y="1233.78"/>
      <point x="70" y="741" type="curve" smooth="yes"/>
      <point x="70" y="269.395"/>
      <point x="321.375" y="-22.8428"/>
      <point x="809.271" y="-22.8428" type="curve" smooth="yes"/>
      <point x="1036.06" y="-22.8428"/>
      <point x="1277.29" y="54.3269"/>
      <point x="1352" y="141" type="curve"/>
      <point x="1352" y="831" type="line"/>
      <point x="706" y="831" type="line"/>
      <point x="706" y="549" type="line"/>
      <point x="979" y="549" type="line"/>
      <point x="979" y="289" type="line"/>
      <point x="957.416" y="273.738"/>
      <point x="885.641" y="262.131"/>
      <point x="826.209" y="262.131" type="curve" smooth="yes"/>
      <point x="572.495" y="262.131"/>
      <point x="464" y="435.058"/>
    </contour>
  </outline>
</glyph>
<glyph name="Q" format="1">
  <advance width="1513"/>
  <unicode hex="0051"/>
  <outline>
    <contour>
      <point x="1073.17" y="-446" type="line"/>
      <point x="1351.17" y="-296" type="line"/>
      <point x="992" y="324" type="line"/>
      <point x="714" y="174" type="line"/>
    </contour>
    <contour>
      <point x="1049" y="740" type="curve" smooth="yes"/>
      <point x="1049" y="451.28"/>
      <point x="983.465" y="264"/>
      <point x="757" y="264" type="curve" smooth="yes"/>
      <point x="531.018" y="264"/>
      <point x="464" y="439.472"/>
      <point x="464" y="739" type="curve" smooth="yes"/>
      <point x="464" y="1040.61"/>
      <point x="532.621" y="1215"/>
      <point x="757" y="1215" type="curve" smooth="yes"/>
      <point x="980.384" y="1215"/>
      <point x="1049" y="1036.94"/>
    </contour>
    <contour>
      <point x="756" y="-24" type="curve" smooth="yes"/>
      <point x="1213.58" y="-24"/>
      <point x="1442" y="253.85"/>
      <point x="1442" y="740" type="curve" smooth="yes"/>
      <point x="1442" y="1230.69"/>
      <point x="1212.52" y="1503"/>
      <point x="756" y="1503" type="curve" smooth="yes"/>
      <point x="299.344" y="1503"/>
      <point x="70" y="1230.09"/>
      <point x="70" y="740" type="curve" smooth="yes"/>
      <point x="70" y="253.189"/>
      <point x="298.197" y="-24"/>
    </contour>
  </outline>
</glyph>
<glyph name="bracketleft" format="1">
  <advance width="841"/>
  <unicode hex="005B"/>
  <outline>
    <contour>
      <point x="741" y="-327" type="line"/>
      <point x="741" y="-102" type="line"/>
      <point x="454" y="-102" type="line"/>
      <point x="454" y="1298" type="line"/>
      <point x="741" y="1298" type="line"/>
      <point x="741" y="1523" type="line"/>
      <point x="145" y="1523" type="line"/>
      <point x="145" y="-327" type="line"/>
    </contour>
  </outline>
</glyph>
<glyph name="backslash" format="1">
  <advance width="1126"/>
  <unicode hex="005C"/>
  <outline>
    <contour>
      <point x="1005" y="-218" type="line"/>
      <point x="464" y="1527" type="line"/>
      <point x="177" y="1527" type="line"/>
      <point x="720" y="-218" type="line"/>
    </contour>
  </outline>
</glyph>
<glyph name="underscore" format="1">
  <advance width="1267"/>
  <unicode hex="005F"/>
  <outline>
    <contour>
      <point x="1281" y="-325" type="line"/>
      <point x="1281" y="-137" type="line"/>
      <point x="-14" y="-137" type="line"/>
      <point x="-14" y="-325" type="line"/>
    </contour>
  </outline>
</glyph>
<glyph name="e" format="1">
  <advance width="1206"/>
  <unicode hex="0065"/>
  <outline>
    <contour>
      <point x="796" y="680" type="curve"/>
      <point x="410" y="680" type="line"/>
      <point x="414" y="817"/>
      <point x="488" y="891"/>
      <point x="607" y="891" type="curve" smooth="yes"/>
      <point x="724" y="891"/>
      <point x="790" y="819"/>
    </contour>
    <contour>
      <point x="1144" y="465" type="line"/>
      <point x="1144" y="614" type="line" smooth="yes"/>
      <point x="1144" y="939"/>
      <point x="955" y="1120"/>
      <point x="631" y="1120" type="curve" smooth="yes"/>
      <point x="283" y="1120"/>
      <point x="51" y="922"/>
      <point x="51" y="543" type="curve" smooth="yes"/>
      <point x="51" y="147"/>
      <point x="304" y="-25"/>
      <point x="686" y="-25" type="curve" smooth="yes"/>
      <point x="911" y="-25"/>
      <point x="1041" y="36"/>
      <point x="1126" y="96" type="curve"/>
      <point x="1071" y="351" type="line"/>
      <point x="997.797" y="290.869"/>
      <point x="852.546" y="232"/>
      <point x="719" y="232" type="curve" smooth="yes"/>
      <point x="551" y="232"/>
      <point x="424" y="286"/>
      <point x="410" y="465" type="curve"/>
    </contour>
  </outline>
</glyph>
<glyph name="f" format="1">
  <advance width="755"/>
  <unicode hex="0066"/>
  <outline>
    <contour>
      <point x="787" y="1260" type="curve"/>
      <point x="787" y="1515" type="line"/>
      <point x="729" y="1522"/>
      <point x="651" y="1528"/>
      <point x="573" y="1528" type="curve" smooth="yes"/>
      <point x="289" y="1528"/>
      <point x="160" y="1405"/>
      <point x="160" y="1137" type="curve" smooth="yes"/>
      <point x="160" y="1096" type="line"/>
      <point x="24" y="1096" type="line"/>
      <point x="24" y="860" type="line"/>
      <point x="160" y="860" type="line"/>
      <point x="160" y="0" type="line"/>
      <point x="518" y="0" type="line"/>
      <point x="518" y="860" type="line"/>
      <point x="756" y="860" type="line"/>
      <point x="756" y="1096" type="line"/>
      <point x="509" y="1096" type="line"/>
      <point x="509" y="1240.03"/>
      <point x="554.578" y="1273.45"/>
      <point x="642.121" y="1273.45" type="curve" smooth="yes"/>
      <point x="681.873" y="1273.45"/>
      <point x="730.279" y="1266.56"/>
    </contour>
  </outline>
</glyph>
<glyph name="h" format="1">
  <advance width="1294"/>
  <unicode hex="0068"/>
  <outline>
    <contour>
      <point x="484" y="1520" type="line"/>
      <point x="484" y="964" type="line"/>
      <point x="499" y="981" type="line"/>
      <point x="600" y="1069"/>
      <point x="684" y="1120"/>
      <point x="811" y="1120" type="curve" smooth="yes"/>
      <point x="1023" y="1120"/>
      <point x="1174" y="981"/>
      <point x="1174" y="720" type="curve" smooth="yes"/>
      <point x="1174" y="0" type="line"/>
      <point x="813" y="0" type="line"/>
      <point x="813" y="589" type="line" smooth="yes"/>
      <point x="813" y="758"/>
      <point x="771.141" y="830"/>
      <point x="643" y="830" type="curve" smooth="yes"/>
      <point x="587.292" y="830"/>
      <point x="540.869" y="819"/>
      <point x="484" y="787" type="curve"/>
      <point x="484" y="0" type="line"/>
      <point x="126" y="0" type="line"/>
      <point x="126" y="1520" type="line"/>
    </contour>
  </outline>
</glyph>
<glyph name="i" format="1">
  <advance width="614"/>
  <unicode hex="0069"/>
  <outline>
    <contour>
      <point x="127.167" y="1264" type="line"/>
      <point x="127.167" y="1534" type="line"/>
      <point x="485.167" y="1534" type="line"/>
      <point x="485.167" y="1264" type="line"/>
    </contour>
    <contour>
      <point x="127.167" y="0" type="line"/>
      <point x="128" y="1096" type="line"/>
      <point x="486" y="1096" type="line"/>
      <point x="485.167" y="0" type="line"/>
    </contour>
  </outline>
</glyph>
<glyph name="j" format="1">
  <advance width="710"/>
  <unicode hex="006A"/>
  <outline>
    <contour>
      <point x="217.167" y="1264" type="line"/>
      <point x="217.167" y="1534" type="line"/>
      <point x="575.167" y="1534" type="line"/>
      <point x="575.167" y="1264" type="line"/>
    </contour>
    <contour>
      <point x="158.055" y="-418.753" type="curve" smooth="yes"/>
      <point x="48.5276" y="-418.753"/>
      <point x="-33.0735" y="-408.35"/>
      <point x="-67" y="-404" type="curve"/>
      <point x="-67" y="-147" type="line"/>
      <point x="-28.1323" y="-150.952"/>
      <point x="7.95757" y="-154.772"/>
      <point x="40.4609" y="-154.772" type="curve" smooth="yes"/>
      <point x="147.781" y="-154.772"/>
      <point x="216" y="-113"/>
      <point x="216" y="103" type="curve" smooth="yes"/>
      <point x="216" y="853" type="line"/>
      <point x="95" y="855" type="line"/>
      <point x="95" y="1096" type="line"/>
      <point x="576" y="1096" type="line"/>
      <point x="576" y="-58" type="line" smooth="yes"/>
      <point x="576" y="-290.705"/>
      <point x="403.128" y="-418.753"/>
    </contour>
  </outline>
</glyph>
<glyph name="l" format="1">
  <advance width="667"/>
  <unicode hex="006C"/>
  <outline>
    <contour>
      <point x="484" y="1520" type="line"/>
      <point x="126" y="1520" type="line"/>
      <point x="126" y="377" type="line" smooth="yes"/>
      <point x="126" y="185"/>
      <point x="126" y="0"/>
      <point x="543" y="0" type="curve" smooth="yes"/>
      <point x="630" y="0" type="line"/>
      <point x="630" y="241" type="line"/>
      <point x="486" y="241"/>
      <point x="484" y="317"/>
      <point x="484" y="377" type="curve" smooth="yes"/>
    </contour>
  </outline>
</glyph>
<glyph name="m" format="1">
  <advance width="1948"/>
  <unicode hex="006D"/>
  <outline>
    <contour>
      <point x="1466" y="0" type="line"/>
      <point x="1824" y="0" type="line"/>
      <point x="1824" y="720" type="line"/>
      <point x="1825" y="1001"/>
      <point x="1664" y="1120"/>
      <point x="1474" y="1120" type="curve" smooth="yes"/>
      <point x="1345" y="1120"/>
      <point x="1210" y="1057"/>
      <point x="1115" y="929" type="curve"/>
      <point x="1057" y="1060"/>
      <point x="950" y="1120"/>
      <point x="828" y="1120" type="curve" smooth="yes"/>
      <point x="694" y="1120"/>
      <point x="570" y="1046"/>
      <point x="504" y="932" type="curve" smooth="yes"/>
      <point x="503" y="932"/>
      <point x="489" y="905"/>
      <point x="488" y="905" type="curve"/>
      <point x="488" y="1096" type="line"/>
      <point x="130" y="1096" type="line"/>
      <point x="130" y="0" type="line"/>
      <point x="488" y="0" type="line"/>
      <point x="488" y="728" type="line" smooth="yes"/>
      <point x="488" y="790"/>
      <point x="566" y="826"/>
      <point x="631" y="826" type="curve" smooth="yes"/>
      <point x="752" y="826"/>
      <point x="794" y="767"/>
      <point x="794" y="591" type="curve" smooth="yes"/>
      <point x="794" y="0" type="line"/>
      <point x="1152" y="0" type="line"/>
      <point x="1152" y="728" type="line" smooth="yes"/>
      <point x="1152" y="769"/>
      <point x="1237" y="826"/>
      <point x="1298" y="826" type="curve" smooth="yes"/>
      <point x="1429" y="826"/>
      <point x="1466" y="761"/>
      <point x="1466" y="564" type="curve" smooth="yes"/>
    </contour>
  </outline>
</glyph>
<glyph name="o" format="1">
  <advance width="1235"/>
  <unicode hex="006F"/>
  <outline>
    <contour>
      <point x="818" y="545" type="curve" smooth="yes"/>
      <point x="818" y="313"/>
      <point x="750" y="232"/>
      <point x="621" y="232" type="curve" smooth="yes"/>
      <point x="502" y="232"/>
      <point x="416" y="280"/>
      <point x="416" y="546" type="curve" smooth="yes"/>
      <point x="416" y="815"/>
      <point x="509" y="865"/>
      <point x="618" y="865" type="curve" smooth="yes"/>
      <point x="732" y="865"/>
      <point x="818" y="807"/>
    </contour>
    <contour>
      <point x="618" y="-28" type="curve" smooth="yes"/>
      <point x="991.935" y="-28"/>
      <point x="1185" y="177.762"/>
      <point x="1185" y="547" type="curve" smooth="yes"/>
      <point x="1185" y="918.116"/>
      <point x="990.374" y="1120"/>
      <point x="618" y="1120" type="curve" smooth="yes"/>
      <point x="243.993" y="1120"/>
      <point x="51" y="920.31"/>
      <point x="51" y="548" type="curve" smooth="yes"/>
      <point x="51" y="176.3"/>
      <point x="245.241" y="-28"/>
    </contour>
  </outline>
</glyph>
<glyph name="p" format="1">
  <advance width="1264"/>
  <unicode hex="0070"/>
  <outline>
    <contour>
      <point x="841" y="552" type="curve" smooth="yes"/>
      <point x="841" y="360"/>
      <point x="793" y="237"/>
      <point x="619" y="237" type="curve" smooth="yes"/>
      <point x="550.845" y="237"/>
      <point x="504.638" y="248"/>
      <point x="485" y="262" type="curve"/>
      <point x="485" y="527" type="line" smooth="yes"/>
      <point x="486" y="781" type="line"/>
      <point x="526.283" y="822"/>
      <point x="572.763" y="845"/>
      <point x="643" y="845" type="curve" smooth="yes"/>
      <point x="800" y="845"/>
      <point x="841" y="738"/>
    </contour>
    <contour>
      <point x="757" y="-23" type="curve" smooth="yes"/>
      <point x="1050.71" y="-23"/>
      <point x="1207" y="216.268"/>
      <point x="1207" y="556" type="curve" smooth="yes"/>
      <point x="1207" y="894.687"/>
      <point x="1110.39" y="1120"/>
      <point x="815" y="1120" type="curve" smooth="yes"/>
      <point x="677" y="1120"/>
      <point x="546" y="1046"/>
      <point x="485" y="937" type="curve"/>
      <point x="485" y="1096" type="line"/>
      <point x="126" y="1096" type="line"/>
      <point x="126" y="-414" type="line"/>
      <point x="485" y="-414" type="line"/>
      <point x="485" y="57" type="line"/>
      <point x="569" y="3"/>
      <point x="645" y="-23"/>
    </contour>
  </outline>
</glyph>
<glyph name="r" format="1">
  <advance width="897"/>
  <unicode hex="0072"/>
  <outline>
    <contour>
      <point x="854" y="761" type="curve"/>
      <point x="909" y="1075" type="line"/>
      <point x="881.848" y="1088.58"/>
      <point x="837.996" y="1098.11"/>
      <point x="800.073" y="1098.11" type="curve" smooth="yes"/>
      <point x="665.305" y="1098.11"/>
      <point x="548.02" y="1024.46"/>
      <point x="486" y="955" type="curve"/>
      <point x="485" y="955" type="line"/>
      <point x="485" y="1096" type="line"/>
      <point x="126" y="1096" type="line"/>
      <point x="126" y="0" type="line"/>
      <point x="485" y="0" type="line"/>
      <point x="485.143" y="712.106" type="line"/>
      <point x="534.006" y="778.685"/>
      <point x="644.159" y="794.003"/>
      <point x="709.298" y="794.003" type="curve" smooth="yes"/>
      <point x="772.053" y="794.003"/>
      <point x="820.135" y="776.393"/>
    </contour>
  </outline>
</glyph>
<glyph name="t" format="1">
  <advance width="882"/>
  <unicode hex="0074"/>
  <outline>
    <contour>
      <point x="148" y="348" type="curve" smooth="yes"/>
      <point x="148" y="860" type="line"/>
      <point x="18" y="860" type="line"/>
      <point x="18" y="1096" type="line"/>
      <point x="148" y="1096" type="line"/>
      <point x="148" y="1369" type="line"/>
      <point x="508" y="1442" type="line"/>
      <point x="508" y="1096" type="line"/>
      <point x="779" y="1096" type="line"/>
      <point x="779" y="860" type="line"/>
      <point x="508" y="860" type="line"/>
      <point x="508" y="382" type="line" smooth="yes"/>
      <point x="508" y="271.213"/>
      <point x="575.249" y="243.791"/>
      <point x="656.2" y="243.791" type="curve" smooth="yes"/>
      <point x="695.943" y="243.791"/>
      <point x="738.988" y="250.401"/>
      <point x="779" y="257" type="curve"/>
      <point x="779" y="6" type="line"/>
      <point x="708" y="-8"/>
      <point x="642.004" y="-14"/>
      <point x="525" y="-14" type="curve" smooth="yes"/>
      <point x="260.557" y="-14"/>
      <point x="148" y="96.9361"/>
    </contour>
  </outline>
</glyph>
<glyph name="y" format="1">
  <advance width="1122"/>
  <unicode hex="0079"/>
  <outline>
    <contour>
      <point x="191" y="-416" type="line"/>
      <point x="256.792" y="-288.471"/>
      <point x="318.797" y="-146.347"/>
      <point x="379" y="25" type="curve"/>
      <point x="-25" y="1096" type="line"/>
      <point x="352" y="1096" type="line"/>
      <point x="571" y="420" type="line"/>
      <point x="776" y="1096" type="line"/>
      <point x="1147" y="1096" type="line"/>
      <point x="706" y="-109" type="line" smooth="yes"/>
      <point x="655" y="-248"/>
      <point x="568.775" y="-417"/>
      <point x="568" y="-416" type="curve"/>
    </contour>
  </outline>
</glyph>
<glyph name="bar" format="1">
  <advance width="1169"/>
  <unicode hex="007C"/>
  <outline>
    <contour>
      <point x="724" y="-433" type="line"/>
      <point x="724" y="1549" type="line"/>
      <point x="444" y="1549" type="line"/>
      <point x="444" y="-433" type="line"/>
    </contour>
  </outline>
</glyph>
<glyph name="asciitilde" format="1">
  <advance width="1588"/>
  <unicode hex="007E"/>
  <outline>
    <contour>
      <point x="1465" y="849" type="curve"/>
      <point x="1234" y="896" type="line"/>
      <point x="1212" y="739"/>
      <point x="1209" y="584"/>
      <point x="1068" y="584" type="curve" smooth="yes"/>
      <point x="998" y="584"/>
      <point x="915" y="678"/>
      <point x="852" y="739" type="curve"/>
      <point x="783" y="802"/>
      <point x="677" y="894"/>
      <point x="510" y="894" type="curve" smooth="yes"/>
      <point x="282" y="894"/>
      <point x="143" y="724"/>
      <point x="127" y="372" type="curve"/>
      <point x="356" y="326" type="line"/>
      <point x="375" y="484"/>
      <point x="375" y="649"/>
      <point x="524" y="652" type="curve"/>
      <point x="538" y="641"/>
      <point x="553" y="631"/>
      <point x="562" y="625" type="curve"/>
      <point x="609" y="605"/>
      <point x="637" y="566"/>
      <point x="666" y="538" type="curve" smooth="yes"/>
      <point x="760" y="447"/>
      <point x="877" y="329"/>
      <point x="1072" y="329" type="curve" smooth="yes"/>
      <point x="1314" y="329"/>
      <point x="1449" y="505"/>
    </contour>
  </outline>
</glyph>
<glyph name="sterling" format="1">
  <advance width="1244"/>
  <unicode hex="00A3"/>
  <outline>
    <contour>
      <point x="1182" y="33" type="curve"/>
      <point x="1135" y="300" type="line"/>
      <point x="1042" y="282"/>
      <point x="942" y="275"/>
      <point x="850" y="275" type="curve" smooth="yes"/>
      <point x="760" y="275"/>
      <point x="656" y="284"/>
      <point x="569" y="286" type="curve"/>
      <point x="583" y="316"/>
      <point x="592" y="344"/>
      <point x="592" y="375" type="curve"/>
      <point x="631" y="444"/>
      <point x="652" y="524"/>
      <point x="645" y="604" type="curve"/>
      <point x="990" y="604" type="line"/>
      <point x="990" y="809" type="line"/>
      <point x="626" y="809" type="line"/>
      <point x="612" y="874"/>
      <point x="600" y="955"/>
      <point x="600" y="1029" type="curve" smooth="yes"/>
      <point x="600" y="1102"/>
      <point x="632" y="1151"/>
      <point x="680" y="1168" type="curve"/>
      <point x="726" y="1209"/>
      <point x="785" y="1219"/>
      <point x="842" y="1195" type="curve"/>
      <point x="914" y="1183"/>
      <point x="990" y="1141"/>
      <point x="1039" y="1086" type="curve"/>
      <point x="1050" y="1086"/>
      <point x="1061" y="1090"/>
      <point x="1076" y="1096" type="curve"/>
      <point x="1108" y="1096" type="line"/>
      <point x="1108" y="1201"/>
      <point x="1103" y="1302"/>
      <point x="1092" y="1399" type="curve"/>
      <point x="1054" y="1436"/>
      <point x="986" y="1470"/>
      <point x="879" y="1489" type="curve" smooth="yes"/>
      <point x="810.842" y="1501.03"/>
      <point x="721.673" y="1505.96"/>
      <point x="644" y="1496" type="curve"/>
      <point x="411" y="1471"/>
      <point x="240" y="1314"/>
      <point x="240" y="1079" type="curve" smooth="yes"/>
      <point x="240" y="990"/>
      <point x="247" y="902"/>
      <point x="267" y="809" type="curve"/>
      <point x="117" y="809" type="line"/>
      <point x="117" y="604" type="line"/>
      <point x="285" y="604" type="line"/>
      <point x="294" y="549"/>
      <point x="301" y="497"/>
      <point x="297" y="456" type="curve"/>
      <point x="292" y="417"/>
      <point x="280" y="376"/>
      <point x="263" y="341" type="curve"/>
      <point x="224" y="310"/>
      <point x="173" y="286"/>
      <point x="108" y="263" type="curve"/>
      <point x="108" y="-4" type="line"/>
      <point x="181" y="6"/>
      <point x="253" y="11"/>
      <point x="321" y="11" type="curve" smooth="yes"/>
      <point x="483" y="11"/>
      <point x="695" y="-4"/>
      <point x="852" y="-4" type="curve" smooth="yes"/>
      <point x="958" y="-4"/>
      <point x="1074" y="4"/>
    </contour>
  </outline>
</glyph>
<glyph name="currency" format="1">
  <advance width="983"/>
  <unicode hex="00A4"/>
  <outline>
    <contour>
      <point x="31" y="375" type="line"/>
      <point x="139" y="268" type="line"/>
      <point x="240" y="369" type="line"/>
      <point x="297" y="326"/>
      <point x="393" y="289"/>
      <point x="494" y="289" type="curve" smooth="yes"/>
      <point x="594" y="289"/>
      <point x="684" y="322"/>
      <point x="745" y="369" type="curve"/>
      <point x="846" y="268" type="line"/>
      <point x="952" y="375" type="line"/>
      <point x="854" y="475" type="line"/>
      <point x="899" y="532"/>
      <point x="934" y="627"/>
      <point x="934" y="729" type="curve" smooth="yes"/>
      <point x="934" y="829"/>
      <point x="899" y="924"/>
      <point x="854" y="983" type="curve"/>
      <point x="952" y="1083" type="line"/>
      <point x="846" y="1190" type="line"/>
      <point x="745" y="1092" type="line"/>
      <point x="684" y="1137"/>
      <point x="594" y="1169"/>
      <point x="494" y="1169" type="curve" smooth="yes"/>
      <point x="393" y="1169"/>
      <point x="297" y="1135"/>
      <point x="240" y="1090" type="curve"/>
      <point x="139" y="1190" type="line"/>
      <point x="31" y="1083" type="line"/>
      <point x="131" y="983" type="line"/>
      <point x="84" y="924"/>
      <point x="53" y="829"/>
      <point x="53" y="729" type="curve" smooth="yes"/>
      <point x="53" y="629"/>
      <point x="86" y="532"/>
      <point x="131" y="477" type="curve"/>
    </contour>
    <contour>
      <point x="213" y="729" type="curve" smooth="yes"/>
      <point x="213" y="909"/>
      <point x="326" y="1022"/>
      <point x="494" y="1022" type="curve" smooth="yes"/>
      <point x="662" y="1022"/>
      <point x="774" y="909"/>
      <point x="774" y="729" type="curve" smooth="yes"/>
      <point x="774" y="549"/>
      <point x="662" y="436"/>
      <point x="494" y="436" type="curve" smooth="yes"/>
      <point x="326" y="436"/>
      <point x="213" y="549"/>
    </contour>
  </outline>
</glyph>
<glyph name="copyright" format="1">
  <advance width="1846"/>
  <unicode hex="00A9"/>
  <outline>
    <contour>
      <point x="1140" y="274" type="curve"/>
      <point x="1209" y="319"/>
      <point x="1262" y="410"/>
      <point x="1276" y="534" type="curve"/>
      <point x="1212" y="534" type="line"/>
      <point x="1197" y="484"/>
      <point x="1106" y="400"/>
      <point x="970" y="400" type="curve" smooth="yes"/>
      <point x="828" y="400"/>
      <point x="737" y="516"/>
      <point x="737" y="685" type="curve" smooth="yes"/>
      <point x="737" y="858"/>
      <point x="819" y="970"/>
      <point x="969" y="970" type="curve" smooth="yes"/>
      <point x="1094" y="970"/>
      <point x="1181" y="894"/>
      <point x="1212" y="839" type="curve"/>
      <point x="1233" y="839"/>
      <point x="1255" y="839"/>
      <point x="1276" y="840" type="curve"/>
      <point x="1272" y="917"/>
      <point x="1261" y="988"/>
      <point x="1243" y="1052" type="curve"/>
      <point x="1163" y="1107"/>
      <point x="1064" y="1141"/>
      <point x="956" y="1141" type="curve" smooth="yes"/>
      <point x="694" y="1141"/>
      <point x="500" y="963"/>
      <point x="500" y="685" type="curve" smooth="yes"/>
      <point x="500" y="406"/>
      <point x="690" y="251"/>
      <point x="924" y="234" type="curve"/>
      <point x="1016" y="231"/>
      <point x="1094" y="262"/>
    </contour>
    <contour>
      <point x="1571" y="681" type="curve" smooth="yes"/>
      <point x="1571" y="316.909"/>
      <point x="1270.9" y="51"/>
      <point x="923" y="51" type="curve" smooth="yes"/>
      <point x="583" y="51"/>
      <point x="276" y="311"/>
      <point x="276" y="681" type="curve" smooth="yes"/>
      <point x="276" y="1036"/>
      <point x="568" y="1310"/>
      <point x="923" y="1310" type="curve" smooth="yes"/>
      <point x="1265" y="1310"/>
      <point x="1571" y="1049"/>
    </contour>
    <contour>
      <point x="923" y="-142" type="curve" smooth="yes"/>
      <point x="1395.74" y="-142"/>
      <point x="1781" y="229.422"/>
      <point x="1781" y="681" type="curve" smooth="yes"/>
      <point x="1781" y="1138"/>
      <point x="1384" y="1503"/>
      <point x="923" y="1503" type="curve" smooth="yes"/>
      <point x="450.738" y="1503"/>
      <point x="65" y="1132.15"/>
      <point x="65" y="681" type="curve" smooth="yes"/>
      <point x="65" y="203.523"/>
      <point x="468.921" y="-142"/>
    </contour>
  </outline>
</glyph>
<glyph name="logicalnot" format="1">
  <advance width="1588"/>
  <unicode hex="00AC"/>
  <outline>
    <contour>
      <point x="1420" y="105" type="line"/>
      <point x="1420" y="825" type="line"/>
      <point x="161" y="825" type="line"/>
      <point x="161" y="575" type="line"/>
      <point x="1145" y="575" type="line"/>
      <point x="1145" y="105" type="line"/>
    </contour>
  </outline>
</glyph>
<glyph name="plusminus" format="1">
  <advance width="1588"/>
  <unicode hex="00B1"/>
  <outline>
    <contour>
      <point x="1232" y="0" type="line"/>
      <point x="1232" y="187" type="line"/>
      <point x="196" y="187" type="line"/>
      <point x="196" y="0" type="line"/>
    </contour>
    <contour>
      <point x="1233" y="653" type="line"/>
      <point x="1233" y="840" type="line"/>
      <point x="813" y="840" type="line"/>
      <point x="813" y="1197" type="line"/>
      <point x="618" y="1197" type="line"/>
      <point x="618" y="840" type="line"/>
      <point x="199" y="840" type="line"/>
      <point x="199" y="653" type="line"/>
      <point x="618" y="653" type="line"/>
      <point x="618" y="298" type="line"/>
      <point x="813" y="298" type="line"/>
      <point x="813" y="653" type="line"/>
    </contour>
  </outline>
</glyph>
<glyph name="acute" format="1">
  <advance width="897"/>
  <unicode hex="00B4"/>
  <outline>
    <contour>
      <point x="779" y="1605" type="line"/>
      <point x="428" y="1605" type="line"/>
      <point x="214" y="1239" type="line"/>
      <point x="463" y="1239" type="line"/>
    </contour>
  </outline>
</glyph>
<glyph name="mu" format="1">
  <advance width="1100"/>
  <unicode hex="00B5"/>
  <outline>
    <contour>
      <point x="135" y="-420" type="line"/>
      <point x="344" y="-420" type="line"/>
      <point x="344" y="18" type="line"/>
      <point x="389" y="-2"/>
      <point x="436" y="-12"/>
      <point x="483" y="-12" type="curve" smooth="yes"/>
      <point x="592" y="-12"/>
      <point x="686" y="29"/>
      <point x="752" y="111" type="curve"/>
      <point x="756" y="111" type="line"/>
      <point x="756" y="0" type="line"/>
      <point x="965" y="0" type="line"/>
      <point x="965" y="1038" type="line"/>
      <point x="756" y="1038" type="line"/>
      <point x="756" y="420" type="line" smooth="yes"/>
      <point x="756" y="279"/>
      <point x="668" y="197"/>
      <point x="551" y="197" type="curve" smooth="yes"/>
      <point x="432" y="197"/>
      <point x="344" y="279"/>
      <point x="344" y="420" type="curve" smooth="yes"/>
      <point x="344" y="1038" type="line"/>
      <point x="135" y="1038" type="line"/>
    </contour>
  </outline>
</glyph>
<glyph name="questiondown" format="1">
  <advance width="1149"/>
  <unicode hex="00BF"/>
  <outline>
    <contour>
      <point x="836" y="1075" type="curve"/>
      <point x="836" y="1162"/>
      <point x="837" y="1248"/>
      <point x="837" y="1336" type="curve"/>
      <point x="779" y="1335"/>
      <point x="721" y="1335"/>
      <point x="662" y="1335" type="curve" smooth="yes"/>
      <point x="588" y="1335"/>
      <point x="515" y="1336"/>
      <point x="440" y="1339" type="curve"/>
      <point x="440" y="1075" type="line"/>
      <point x="499" y="1078"/>
      <point x="556" y="1078"/>
      <point x="614" y="1078" type="curve" smooth="yes"/>
      <point x="688" y="1078"/>
      <point x="761" y="1077"/>
    </contour>
    <contour>
      <point x="1064" y="33" type="curve"/>
      <point x="1064" y="266" type="line"/>
      <point x="1047" y="266"/>
      <point x="1032" y="267"/>
      <point x="1015" y="267" type="curve"/>
      <point x="1007" y="273"/>
      <point x="1010" y="279"/>
      <point x="1009" y="279" type="curve" smooth="yes"/>
      <point x="955" y="185"/>
      <point x="800" y="113"/>
      <point x="682" y="113" type="curve" smooth="yes"/>
      <point x="553" y="113"/>
      <point x="463" y="170"/>
      <point x="463" y="290" type="curve" smooth="yes"/>
      <point x="463" y="442"/>
      <point x="663" y="554"/>
      <point x="797" y="604" type="curve"/>
      <point x="821" y="713"/>
      <point x="817" y="826"/>
      <point x="817" y="950" type="curve"/>
      <point x="460" y="950" type="line"/>
      <point x="460" y="759" type="line"/>
      <point x="281" y="640"/>
      <point x="80" y="488"/>
      <point x="80" y="229" type="curve" smooth="yes"/>
      <point x="80" y="-4"/>
      <point x="286" y="-167"/>
      <point x="596" y="-167" type="curve" smooth="yes"/>
      <point x="807" y="-167"/>
      <point x="1016" y="-67"/>
    </contour>
  </outline>
</glyph>
<glyph name="Icircumflex" format="1">
  <advance width="908"/>
  <unicode hex="00CE"/>
  <outline>
    <contour>
      <point x="884" y="1603" type="line"/>
      <point x="579" y="1967" type="line"/>
      <point x="327" y="1967" type="line"/>
      <point x="22" y="1603" type="line"/>
      <point x="296" y="1603" type="line"/>
      <point x="451" y="1791" type="line"/>
      <point x="607" y="1603" type="line"/>
    </contour>
    <contour>
      <point x="799" y="0" type="line"/>
      <point x="799" y="256" type="line"/>
      <point x="646" y="319" type="line"/>
      <point x="646" y="1129" type="line"/>
      <point x="799" y="1192" type="line"/>
      <point x="799" y="1479" type="line"/>
      <point x="109" y="1479" type="line"/>
      <point x="109" y="1222" type="line"/>
      <point x="262" y="1160" type="line"/>
      <point x="262" y="350" type="line"/>
      <point x="109" y="287" type="line"/>
      <point x="109" y="0" type="line"/>
    </contour>
  </outline>
</glyph>
<glyph name="Idieresis" format="1">
  <advance width="908"/>
  <unicode hex="00CF"/>
  <outline>
    <contour>
      <point x="365" y="1608" type="curve"/>
      <point x="365" y="1701"/>
      <point x="365" y="1794"/>
      <point x="366" y="1887" type="curve"/>
      <point x="334" y="1886"/>
      <point x="303" y="1886"/>
      <point x="271" y="1886" type="curve" smooth="yes"/>
      <point x="246" y="1886" type="line" smooth="yes"/>
      <point x="186" y="1886"/>
      <point x="128" y="1887"/>
      <point x="65" y="1889" type="curve"/>
      <point x="65" y="1608" type="line"/>
      <point x="106" y="1611"/>
      <point x="144" y="1611"/>
      <point x="182" y="1611" type="curve" smooth="yes"/>
      <point x="243" y="1611"/>
      <point x="303" y="1609"/>
    </contour>
    <contour>
      <point x="842" y="1608" type="curve"/>
      <point x="842" y="1701"/>
      <point x="842" y="1794"/>
      <point x="843" y="1887" type="curve"/>
      <point x="794" y="1886"/>
      <point x="748" y="1886"/>
      <point x="698" y="1886" type="curve" smooth="yes"/>
      <point x="648" y="1886"/>
      <point x="596" y="1887"/>
      <point x="542" y="1889" type="curve"/>
      <point x="542" y="1608" type="line"/>
      <point x="591" y="1610"/>
      <point x="637" y="1611"/>
      <point x="683" y="1611" type="curve" smooth="yes"/>
      <point x="735" y="1611"/>
      <point x="788" y="1610"/>
    </contour>
    <contour>
      <point x="799" y="0" type="line"/>
      <point x="799" y="256" type="line"/>
      <point x="646" y="319" type="line"/>
      <point x="646" y="1129" type="line"/>
      <point x="799" y="1192" type="line"/>
      <point x="799" y="1479" type="line"/>
      <point x="109" y="1479" type="line"/>
      <point x="109" y="1222" type="line"/>
      <point x="262" y="1160" type="line"/>
      <point x="262" y="350" type="line"/>
      <point x="109" y="287" type="line"/>
      <point x="109" y="0" type="line"/>
    </contour>
  </outline>
</glyph>
<glyph name="Ntilde" format="1">
  <advance width="1591"/>
  <unicode hex="00D1"/>
  <outline>
    <contour>
      <point x="1234" y="1914" type="curve"/>
      <point x="1022" y="1914" type="line"/>
      <point x="1016" y="1846"/>
      <point x="988" y="1817"/>
      <point x="931" y="1817" type="curve" smooth="yes"/>
      <point x="906" y="1817"/>
      <point x="858" y="1840"/>
      <point x="823" y="1852" type="curve"/>
      <point x="768" y="1873"/>
      <point x="711" y="1905"/>
      <point x="644" y="1905" type="curve" smooth="yes"/>
      <point x="474" y="1905"/>
      <point x="368" y="1781"/>
      <point x="356" y="1608" type="curve"/>
      <point x="567" y="1608" type="line"/>
      <point x="570" y="1661"/>
      <point x="580" y="1689"/>
      <point x="629" y="1694" type="curve"/>
      <point x="655" y="1703"/>
      <point x="684" y="1699"/>
      <point x="711" y="1689" type="curve"/>
      <point x="782.597" y="1667.79"/>
      <point x="855.921" y="1618"/>
      <point x="947" y="1618" type="curve" smooth="yes"/>
      <point x="1124" y="1618"/>
      <point x="1217" y="1721"/>
    </contour>
    <contour>
      <point x="1447" y="0" type="line"/>
      <point x="1447" y="1479" type="line"/>
      <point x="1091" y="1479" type="line"/>
      <point x="1091" y="659" type="line"/>
      <point x="1060" y="698"/>
      <point x="1008" y="789"/>
      <point x="978" y="839" type="curve" smooth="yes"/>
      <point x="579" y="1479" type="line"/>
      <point x="147" y="1479" type="line"/>
      <point x="147" y="0" type="line"/>
      <point x="504" y="0" type="line"/>
      <point x="504" y="757" type="line" smooth="yes"/>
      <point x="504" y="809"/>
      <point x="503" y="917"/>
      <point x="506" y="960" type="curve"/>
      <point x="698" y="645"/>
      <point x="899" y="318"/>
      <point x="1094" y="0" type="curve"/>
    </contour>
  </outline>
</glyph>
<glyph name="Oacute" format="1">
  <advance width="1513"/>
  <unicode hex="00D3"/>
  <outline>
    <contour>
      <point x="1066" y="1967" type="line"/>
      <point x="715" y="1967" type="line"/>
      <point x="501" y="1601" type="line"/>
      <point x="750" y="1601" type="line"/>
    </contour>
    <contour>
      <point x="757" y="264" type="curve" smooth="yes"/>
      <point x="679" y="264"/>
      <point x="606" y="297"/>
      <point x="553" y="360" type="curve"/>
      <point x="496" y="430"/>
      <point x="464" y="517"/>
      <point x="464" y="739" type="curve" smooth="yes"/>
      <point x="464" y="963"/>
      <point x="497" y="1050"/>
      <point x="554" y="1119" type="curve" smooth="yes"/>
      <point x="607" y="1183"/>
      <point x="682" y="1215"/>
      <point x="757" y="1215" type="curve" smooth="yes"/>
      <point x="835" y="1215"/>
      <point x="908" y="1181"/>
      <point x="961" y="1116" type="curve" smooth="yes"/>
      <point x="1017" y="1046"/>
      <point x="1049" y="960"/>
      <point x="1049" y="740" type="curve" smooth="yes"/>
      <point x="1049" y="531"/>
      <point x="1021" y="445"/>
      <point x="966" y="371" type="curve" smooth="yes"/>
      <point x="916" y="304"/>
      <point x="842" y="264"/>
    </contour>
    <contour>
      <point x="756" y="-24" type="curve" smooth="yes"/>
      <point x="997" y="-24"/>
      <point x="1178" y="75"/>
      <point x="1288" y="208" type="curve"/>
      <point x="1390" y="325"/>
      <point x="1442" y="465"/>
      <point x="1442" y="740" type="curve" smooth="yes"/>
      <point x="1442" y="1018"/>
      <point x="1389" y="1157"/>
      <point x="1286" y="1274" type="curve"/>
      <point x="1176" y="1406"/>
      <point x="994" y="1503"/>
      <point x="756" y="1503" type="curve" smooth="yes"/>
      <point x="517" y="1503"/>
      <point x="337" y="1406"/>
      <point x="226" y="1274" type="curve"/>
      <point x="123" y="1157"/>
      <point x="70" y="1018"/>
      <point x="70" y="740" type="curve" smooth="yes"/>
      <point x="70" y="465"/>
      <point x="122" y="326"/>
      <point x="224" y="208" type="curve"/>
      <point x="334" y="75"/>
      <point x="515" y="-24"/>
    </contour>
  </outline>
</glyph>
<glyph name="Otilde" format="1">
  <advance width="1513"/>
  <unicode hex="00D5"/>
  <outline>
    <contour>
      <point x="1191" y="1920" type="curve"/>
      <point x="979" y="1920" type="line"/>
      <point x="973" y="1852"/>
      <point x="945" y="1823"/>
      <point x="888" y="1823" type="curve" smooth="yes"/>
      <point x="863" y="1823"/>
      <point x="815" y="1846"/>
      <point x="780" y="1859" type="curve" smooth="yes"/>
      <point x="724" y="1879"/>
      <point x="668" y="1911"/>
      <point x="601" y="1911" type="curve" smooth="yes"/>
      <point x="432" y="1911"/>
      <point x="325" y="1787"/>
      <point x="313" y="1614" type="curve"/>
      <point x="523" y="1614" type="line"/>
      <point x="527" y="1667"/>
      <point x="537" y="1695"/>
      <point x="585" y="1700" type="curve"/>
      <point x="612" y="1709"/>
      <point x="641" y="1705"/>
      <point x="668" y="1695" type="curve"/>
      <point x="740.196" y="1673.61"/>
      <point x="811.12" y="1624"/>
      <point x="904" y="1624" type="curve" smooth="yes"/>
      <point x="1081" y="1624"/>
      <point x="1174" y="1727"/>
    </contour>
    <contour>
      <point x="757" y="264" type="curve" smooth="yes"/>
      <point x="679" y="264"/>
      <point x="606" y="297"/>
      <point x="553" y="360" type="curve"/>
      <point x="496" y="430"/>
      <point x="464" y="517"/>
      <point x="464" y="739" type="curve" smooth="yes"/>
      <point x="464" y="963"/>
      <point x="497" y="1050"/>
      <point x="554" y="1119" type="curve" smooth="yes"/>
      <point x="607" y="1183"/>
      <point x="682" y="1215"/>
      <point x="757" y="1215" type="curve" smooth="yes"/>
      <point x="835" y="1215"/>
      <point x="908" y="1181"/>
      <point x="961" y="1116" type="curve" smooth="yes"/>
      <point x="1017" y="1046"/>
      <point x="1049" y="960"/>
      <point x="1049" y="740" type="curve" smooth="yes"/>
      <point x="1049" y="531"/>
      <point x="1021" y="445"/>
      <point x="966" y="371" type="curve" smooth="yes"/>
      <point x="916" y="304"/>
      <point x="842" y="264"/>
    </contour>
    <contour>
      <point x="756" y="-24" type="curve" smooth="yes"/>
      <point x="997" y="-24"/>
      <point x="1178" y="75"/>
      <point x="1288" y="208" type="curve"/>
      <point x="1390" y="325"/>
      <point x="1442" y="465"/>
      <point x="1442" y="740" type="curve" smooth="yes"/>
      <point x="1442" y="1018"/>
      <point x="1389" y="1157"/>
      <point x="1286" y="1274" type="curve"/>
      <point x="1176" y="1406"/>
      <point x="994" y="1503"/>
      <point x="756" y="1503" type="curve" smooth="yes"/>
      <point x="517" y="1503"/>
      <point x="337" y="1406"/>
      <point x="226" y="1274" type="curve"/>
      <point x="123" y="1157"/>
      <point x="70" y="1018"/>
      <point x="70" y="740" type="curve" smooth="yes"/>
      <point x="70" y="465"/>
      <point x="122" y="326"/>
      <point x="224" y="208" type="curve"/>
      <point x="334" y="75"/>
      <point x="515" y="-24"/>
    </contour>
  </outline>
</glyph>
<glyph name="Udieresis" format="1">
  <advance width="1498"/>
  <unicode hex="00DC"/>
  <outline>
    <contour>
      <point x="661" y="1608" type="curve"/>
      <point x="661" y="1701"/>
      <point x="661" y="1794"/>
      <point x="662" y="1887" type="curve"/>
      <point x="630" y="1886"/>
      <point x="599" y="1886"/>
      <point x="567" y="1886" type="curve" smooth="yes"/>
      <point x="542" y="1886" type="line" smooth="yes"/>
      <point x="482" y="1886"/>
      <point x="424" y="1887"/>
      <point x="362" y="1889" type="curve"/>
      <point x="362" y="1608" type="line"/>
      <point x="402" y="1611"/>
      <point x="440" y="1611"/>
      <point x="478" y="1611" type="curve" smooth="yes"/>
      <point x="539" y="1611"/>
      <point x="599" y="1609"/>
    </contour>
    <contour>
      <point x="1138" y="1608" type="curve"/>
      <point x="1138" y="1701"/>
      <point x="1139" y="1794"/>
      <point x="1139" y="1887" type="curve"/>
      <point x="1088" y="1886"/>
      <point x="1038" y="1886"/>
      <point x="986" y="1886" type="curve" smooth="yes"/>
      <point x="939" y="1886"/>
      <point x="890" y="1887"/>
      <point x="838" y="1889" type="curve"/>
      <point x="838" y="1608" type="line"/>
      <point x="890" y="1610"/>
      <point x="938" y="1611"/>
      <point x="987" y="1611" type="curve" smooth="yes"/>
      <point x="1037" y="1611"/>
      <point x="1086" y="1610"/>
    </contour>
    <contour>
      <point x="1375" y="1479" type="line"/>
      <point x="991" y="1479" type="line"/>
      <point x="991" y="538" type="line" smooth="yes"/>
      <point x="991" y="352"/>
      <point x="902" y="267"/>
      <point x="749" y="267" type="curve" smooth="yes"/>
      <point x="589" y="267"/>
      <point x="507" y="357"/>
      <point x="507" y="537" type="curve" smooth="yes"/>
      <point x="507" y="1479" type="line"/>
      <point x="123" y="1479" type="line"/>
      <point x="123" y="505" type="line" smooth="yes"/>
      <point x="123" y="170"/>
      <point x="370" y="-24"/>
      <point x="749" y="-24" type="curve" smooth="yes"/>
      <point x="1144" y="-24"/>
      <point x="1375" y="177"/>
      <point x="1375" y="506" type="curve" smooth="yes"/>
    </contour>
  </outline>
</glyph>
<glyph name="eacute" format="1">
  <advance width="1197"/>
  <unicode hex="00E9"/>
  <outline>
    <contour>
      <point x="908" y="1605" type="line"/>
      <point x="558" y="1605" type="line"/>
      <point x="343" y="1239" type="line"/>
      <point x="592" y="1239" type="line"/>
    </contour>
    <contour>
      <point x="796" y="680" type="curve"/>
      <point x="410" y="680" type="line"/>
      <point x="414" y="817"/>
      <point x="488" y="891"/>
      <point x="607" y="891" type="curve" smooth="yes"/>
      <point x="724" y="891"/>
      <point x="790" y="819"/>
    </contour>
    <contour>
      <point x="1144" y="465" type="line"/>
      <point x="1144" y="614" type="line" smooth="yes"/>
      <point x="1144" y="939"/>
      <point x="955" y="1120"/>
      <point x="631" y="1120" type="curve" smooth="yes"/>
      <point x="283" y="1120"/>
      <point x="51" y="922"/>
      <point x="51" y="543" type="curve" smooth="yes"/>
      <point x="51" y="147"/>
      <point x="304" y="-25"/>
      <point x="686" y="-25" type="curve" smooth="yes"/>
      <point x="911" y="-25"/>
      <point x="1041" y="36"/>
      <point x="1126" y="96" type="curve"/>
      <point x="1071" y="351" type="line"/>
      <point x="1043" y="328"/>
      <point x="1005" y="314"/>
      <point x="970" y="314" type="curve"/>
      <point x="917" y="280"/>
      <point x="832" y="232"/>
      <point x="719" y="232" type="curve" smooth="yes"/>
      <point x="551" y="232"/>
      <point x="424" y="286"/>
      <point x="410" y="465" type="curve"/>
    </contour>
  </outline>
</glyph>
<glyph name="edieresis" format="1">
  <advance width="1197"/>
  <unicode hex="00EB"/>
  <outline>
    <contour>
      <point x="510" y="1246" type="curve"/>
      <point x="510" y="1339"/>
      <point x="510" y="1432"/>
      <point x="511" y="1525" type="curve"/>
      <point x="479" y="1524"/>
      <point x="448" y="1524"/>
      <point x="416" y="1524" type="curve" smooth="yes"/>
      <point x="391" y="1524" type="line" smooth="yes"/>
      <point x="331" y="1524"/>
      <point x="273" y="1525"/>
      <point x="211" y="1527" type="curve"/>
      <point x="211" y="1246" type="line"/>
      <point x="251" y="1249"/>
      <point x="289" y="1250"/>
      <point x="327" y="1250" type="curve" smooth="yes"/>
      <point x="388" y="1250"/>
      <point x="448" y="1248"/>
    </contour>
    <contour>
      <point x="987" y="1246" type="curve"/>
      <point x="987" y="1339"/>
      <point x="988" y="1432"/>
      <point x="988" y="1525" type="curve"/>
      <point x="937" y="1524"/>
      <point x="887" y="1524"/>
      <point x="835" y="1524" type="curve" smooth="yes"/>
      <point x="788" y="1524"/>
      <point x="739" y="1525"/>
      <point x="687" y="1527" type="curve"/>
      <point x="687" y="1246" type="line"/>
      <point x="739" y="1248"/>
      <point x="787" y="1250"/>
      <point x="836" y="1250" type="curve" smooth="yes"/>
      <point x="886" y="1250"/>
      <point x="935" y="1248"/>
    </contour>
    <contour>
      <point x="796" y="680" type="curve"/>
      <point x="410" y="680" type="line"/>
      <point x="414" y="817"/>
      <point x="488" y="891"/>
      <point x="607" y="891" type="curve" smooth="yes"/>
      <point x="724" y="891"/>
      <point x="790" y="819"/>
    </contour>
    <contour>
      <point x="1144" y="465" type="line"/>
      <point x="1144" y="614" type="line" smooth="yes"/>
      <point x="1144" y="939"/>
      <point x="955" y="1120"/>
      <point x="631" y="1120" type="curve" smooth="yes"/>
      <point x="283" y="1120"/>
      <point x="51" y="922"/>
      <point x="51" y="543" type="curve" smooth="yes"/>
      <point x="51" y="147"/>
      <point x="304" y="-25"/>
      <point x="686" y="-25" type="curve" smooth="yes"/>
      <point x="911" y="-25"/>
      <point x="1041" y="36"/>
      <point x="1126" y="96" type="curve"/>
      <point x="1071" y="351" type="line"/>
      <point x="1043" y="328"/>
      <point x="1005" y="314"/>
      <point x="970" y="314" type="curve"/>
      <point x="917" y="280"/>
      <point x="832" y="232"/>
      <point x="719" y="232" type="curve" smooth="yes"/>
      <point x="551" y="232"/>
      <point x="424" y="286"/>
      <point x="410" y="465" type="curve"/>
    </contour>
  </outline>
</glyph>
<glyph name="ntilde" format="1">
  <advance width="1294"/>
  <unicode hex="00F1"/>
  <outline>
    <contour>
      <point x="1085" y="1552" type="curve"/>
      <point x="874" y="1552" type="line"/>
      <point x="867" y="1484"/>
      <point x="840" y="1456"/>
      <point x="783" y="1456" type="curve" smooth="yes"/>
      <point x="758" y="1456"/>
      <point x="710" y="1479"/>
      <point x="675" y="1491" type="curve" smooth="yes"/>
      <point x="619" y="1511"/>
      <point x="563" y="1543"/>
      <point x="496" y="1543" type="curve" smooth="yes"/>
      <point x="327" y="1543"/>
      <point x="220" y="1419"/>
      <point x="208" y="1247" type="curve"/>
      <point x="418" y="1247" type="line"/>
      <point x="421" y="1299"/>
      <point x="432" y="1327"/>
      <point x="481" y="1332" type="curve"/>
      <point x="507" y="1342"/>
      <point x="536" y="1338"/>
      <point x="563" y="1327" type="curve"/>
      <point x="634.817" y="1307.66"/>
      <point x="706.583" y="1256"/>
      <point x="799" y="1256" type="curve" smooth="yes"/>
      <point x="976" y="1256"/>
      <point x="1069" y="1359"/>
    </contour>
    <contour>
      <point x="1174" y="0" type="line"/>
      <point x="1174" y="735" type="line" smooth="yes"/>
      <point x="1174" y="996"/>
      <point x="994" y="1120"/>
      <point x="817" y="1120" type="curve" smooth="yes"/>
      <point x="685" y="1120"/>
      <point x="556" y="1056"/>
      <point x="486" y="936" type="curve"/>
      <point x="485" y="936" type="line"/>
      <point x="485" y="1096" type="line"/>
      <point x="126" y="1096" type="line"/>
      <point x="126" y="0" type="line"/>
      <point x="485" y="0" type="line"/>
      <point x="485" y="727" type="line"/>
      <point x="522" y="796"/>
      <point x="573" y="826"/>
      <point x="640" y="826" type="curve" smooth="yes"/>
      <point x="788" y="826"/>
      <point x="813" y="733"/>
      <point x="813" y="552" type="curve" smooth="yes"/>
      <point x="813" y="0" type="line"/>
    </contour>
  </outline>
</glyph>
<glyph name="divide" format="1">
  <advance width="1588"/>
  <unicode hex="00F7"/>
  <outline>
    <contour>
      <point x="918" y="877" type="curve"/>
      <point x="942" y="970"/>
      <point x="963" y="1086"/>
      <point x="960" y="1206" type="curve"/>
      <point x="976" y="1213"/>
      <point x="984" y="1220"/>
      <point x="991" y="1223" type="curve"/>
      <point x="886" y="1243"/>
      <point x="781" y="1260"/>
      <point x="669" y="1272" type="curve"/>
      <point x="646" y="1179"/>
      <point x="624" y="1064"/>
      <point x="627" y="944" type="curve"/>
      <point x="612" y="936"/>
      <point x="602" y="930"/>
      <point x="595" y="927" type="curve"/>
      <point x="701" y="907"/>
      <point x="806" y="889"/>
    </contour>
    <contour>
      <point x="958" y="28" type="curve"/>
      <point x="958" y="131"/>
      <point x="937" y="230"/>
      <point x="911" y="307" type="curve"/>
      <point x="808" y="307"/>
      <point x="709" y="286"/>
      <point x="630" y="260" type="curve"/>
      <point x="630" y="157"/>
      <point x="651" y="59"/>
      <point x="676" y="-19" type="curve"/>
      <point x="781" y="-19"/>
      <point x="878" y="2"/>
    </contour>
    <contour>
      <point x="1426" y="485" type="line"/>
      <point x="1426" y="735" type="line"/>
      <point x="161" y="735" type="line"/>
      <point x="161" y="485" type="line"/>
    </contour>
  </outline>
</glyph>
<glyph name="oslash" format="1">
  <advance width="1235"/>
  <unicode hex="00F8"/>
  <outline>
    <contour>
      <point x="822" y="545" type="curve" smooth="yes"/>
      <point x="822" y="487"/>
      <point x="823" y="436"/>
      <point x="821" y="390" type="curve" smooth="yes"/>
      <point x="816" y="247"/>
      <point x="722" y="221"/>
      <point x="621" y="222" type="curve"/>
      <point x="624" y="223"/>
      <point x="627" y="223"/>
      <point x="630" y="223" type="curve"/>
      <point x="587" y="223"/>
      <point x="548" y="232"/>
      <point x="516" y="252" type="curve"/>
      <point x="811" y="718" type="line"/>
      <point x="816" y="686"/>
      <point x="822" y="617"/>
    </contour>
    <contour>
      <point x="720" y="842" type="curve"/>
      <point x="423" y="374" type="line"/>
      <point x="415" y="412"/>
      <point x="409" y="461"/>
      <point x="409" y="543" type="curve" smooth="yes"/>
      <point x="409" y="835"/>
      <point x="517" y="869"/>
      <point x="617" y="869" type="curve" smooth="yes"/>
      <point x="656" y="869"/>
      <point x="689" y="860"/>
    </contour>
    <contour>
      <point x="1185" y="547" type="curve" smooth="yes"/>
      <point x="1185" y="771"/>
      <point x="1126" y="898"/>
      <point x="1004" y="1000" type="curve"/>
      <point x="1142" y="1203" type="line"/>
      <point x="972" y="1223" type="line"/>
      <point x="875" y="1074" type="line"/>
      <point x="800" y="1104"/>
      <point x="719" y="1124"/>
      <point x="618" y="1124" type="curve" smooth="yes"/>
      <point x="427" y="1124"/>
      <point x="290" y="1064"/>
      <point x="199" y="975" type="curve" smooth="yes"/>
      <point x="100" y="877"/>
      <point x="51" y="750"/>
      <point x="51" y="548" type="curve" smooth="yes"/>
      <point x="51" y="351"/>
      <point x="104" y="198"/>
      <point x="232" y="96" type="curve"/>
      <point x="79" y="-131" type="line"/>
      <point x="249" y="-151" type="line"/>
      <point x="361" y="22" type="line"/>
      <point x="430" y="-5"/>
      <point x="521" y="-28"/>
      <point x="618" y="-28" type="curve" smooth="yes"/>
      <point x="811" y="-28"/>
      <point x="948" y="33"/>
      <point x="1038" y="123" type="curve" smooth="yes"/>
      <point x="1137" y="222"/>
      <point x="1185" y="348"/>
    </contour>
  </outline>
</glyph>
<glyph name="uacute" format="1">
  <advance width="1294"/>
  <unicode hex="00FA"/>
  <outline>
    <contour>
      <point x="952" y="1605" type="line"/>
      <point x="601" y="1605" type="line"/>
      <point x="387" y="1239" type="line"/>
      <point x="636" y="1239" type="line"/>
    </contour>
    <contour>
      <point x="119" y="1096" type="line"/>
      <point x="119" y="361" type="line" smooth="yes"/>
      <point x="119" y="100"/>
      <point x="300" y="-24"/>
      <point x="477" y="-24" type="curve" smooth="yes"/>
      <point x="609" y="-24"/>
      <point x="738" y="40"/>
      <point x="807" y="160" type="curve" smooth="yes"/>
      <point x="809" y="160" type="line"/>
      <point x="809" y="0" type="line"/>
      <point x="1168" y="0" type="line"/>
      <point x="1168" y="1096" type="line"/>
      <point x="809" y="1096" type="line"/>
      <point x="809" y="469" type="line"/>
      <point x="820" y="446"/>
      <point x="834" y="420"/>
      <point x="847" y="387" type="curve"/>
      <point x="798" y="307"/>
      <point x="732" y="270"/>
      <point x="653" y="270" type="curve" smooth="yes"/>
      <point x="506" y="270"/>
      <point x="481" y="363"/>
      <point x="481" y="544" type="curve" smooth="yes"/>
      <point x="481" y="1096" type="line"/>
    </contour>
  </outline>
</glyph>
<glyph name="yacute" format="1">
  <advance width="909"/>
  <unicode hex="00FD"/>
  <outline>
    <contour>
      <point x="358" y="41" type="line"/>
      <point x="301" y="-133" type="line" smooth="yes"/>
      <point x="281" y="-195"/>
      <point x="229" y="-223"/>
      <point x="176" y="-223" type="curve" smooth="yes"/>
      <point x="115" y="-223" type="line"/>
      <point x="115" y="-420" type="line"/>
      <point x="184" y="-420" type="line" smooth="yes"/>
      <point x="311" y="-420"/>
      <point x="420" y="-375"/>
      <point x="477" y="-215" type="curve" smooth="yes"/>
      <point x="924" y="1038" type="line"/>
      <point x="702" y="1038" type="line"/>
      <point x="457" y="311" type="line"/>
      <point x="453" y="311" type="line"/>
      <point x="207" y="1038" type="line"/>
      <point x="-14" y="1038" type="line"/>
    </contour>
    <contour>
      <point x="297" y="1171" type="line"/>
      <point x="469" y="1171" type="line"/>
      <point x="760" y="1470" type="line"/>
      <point x="485" y="1470" type="line"/>
    </contour>
  </outline>
</glyph>
<glyph name="thorn" format="1">
  <advance width="1063"/>
  <unicode hex="00FE"/>
  <outline>
    <contour>
      <point x="135" y="-420" type="line"/>
      <point x="344" y="-420" type="line"/>
      <point x="344" y="111" type="line"/>
      <point x="422" y="37"/>
      <point x="506" y="-12"/>
      <point x="612" y="-12" type="curve" smooth="yes"/>
      <point x="739" y="-12"/>
      <point x="831" y="45"/>
      <point x="891" y="123" type="curve" smooth="yes"/>
      <point x="948" y="197"/>
      <point x="965" y="264"/>
      <point x="965" y="518" type="curve" smooth="yes"/>
      <point x="965" y="774"/>
      <point x="948" y="842"/>
      <point x="891" y="915" type="curve" smooth="yes"/>
      <point x="831" y="993"/>
      <point x="739" y="1051"/>
      <point x="612" y="1051" type="curve" smooth="yes"/>
      <point x="506" y="1051"/>
      <point x="410" y="1001"/>
      <point x="344" y="930" type="curve"/>
      <point x="344" y="1458" type="line"/>
      <point x="135" y="1458" type="line"/>
    </contour>
    <contour>
      <point x="549" y="197" type="curve" smooth="yes"/>
      <point x="354" y="197"/>
      <point x="344" y="369"/>
      <point x="344" y="518" type="curve" smooth="yes"/>
      <point x="344" y="670"/>
      <point x="354" y="842"/>
      <point x="549" y="842" type="curve" smooth="yes"/>
      <point x="745" y="842"/>
      <point x="756" y="680"/>
      <point x="756" y="518" type="curve" smooth="yes"/>
      <point x="756" y="358"/>
      <point x="745" y="197"/>
    </contour>
  </outline>
</glyph>
<glyph name="ydieresis" format="1">
  <advance width="1122"/>
  <unicode hex="00FF"/>
  <outline>
    <contour>
      <point x="474" y="1246" type="curve"/>
      <point x="474" y="1339"/>
      <point x="475" y="1432"/>
      <point x="476" y="1525" type="curve"/>
      <point x="444" y="1524"/>
      <point x="413" y="1524"/>
      <point x="381" y="1524" type="curve" smooth="yes"/>
      <point x="356" y="1524" type="line" smooth="yes"/>
      <point x="296" y="1524"/>
      <point x="237" y="1525"/>
      <point x="175" y="1527" type="curve"/>
      <point x="175" y="1246" type="line"/>
      <point x="216" y="1249"/>
      <point x="254" y="1250"/>
      <point x="292" y="1250" type="curve" smooth="yes"/>
      <point x="352" y="1250"/>
      <point x="412" y="1248"/>
    </contour>
    <contour>
      <point x="952" y="1246" type="curve"/>
      <point x="952" y="1525" type="line"/>
      <point x="901" y="1524"/>
      <point x="851" y="1524"/>
      <point x="799" y="1524" type="curve" smooth="yes"/>
      <point x="752" y="1524"/>
      <point x="703" y="1525"/>
      <point x="652" y="1527" type="curve"/>
      <point x="652" y="1246" type="line"/>
      <point x="703" y="1248"/>
      <point x="751" y="1250"/>
      <point x="800" y="1250" type="curve" smooth="yes"/>
      <point x="850" y="1250"/>
      <point x="899" y="1248"/>
    </contour>
    <contour>
      <point x="233" y="-244" type="curve"/>
      <point x="191" y="-416" type="line"/>
      <point x="528" y="-416" type="line"/>
      <point x="621" y="-337"/>
      <point x="658" y="-252"/>
      <point x="706" y="-109" type="curve"/>
      <point x="1147" y="1096" type="line"/>
      <point x="776" y="1096" type="line"/>
      <point x="711" y="882"/>
      <point x="617" y="557"/>
      <point x="571" y="420" type="curve"/>
      <point x="527" y="561" type="line"/>
      <point x="469" y="740"/>
      <point x="410" y="918"/>
      <point x="352" y="1096" type="curve"/>
      <point x="-25" y="1096" type="line"/>
      <point x="379" y="25" type="line"/>
      <point x="340" y="-86"/>
      <point x="321" y="-179"/>
    </contour>
  </outline>
</glyph>
<glyph name="dotlessi" format="1">
  <advance width="614"/>
  <unicode hex="0131"/>
  <outline>
    <contour>
      <point x="486" y="0" type="line"/>
      <point x="486" y="1096" type="line"/>
      <point x="128" y="1096" type="line"/>
      <point x="128" y="0" type="line"/>
    </contour>
  </outline>
</glyph>
<glyph name="Scaron" format="1">
  <advance width="1176"/>
  <unicode hex="0160"/>
  <outline>
    <contour>
      <point x="27" y="188" type="line"/>
      <point x="180" y="53"/>
      <point x="369" y="-12"/>
      <point x="584" y="-12" type="curve" smooth="yes"/>
      <point x="897" y="-12"/>
      <point x="1096" y="143"/>
      <point x="1096" y="412" type="curve" smooth="yes"/>
      <point x="1096" y="610"/>
      <point x="969" y="799"/>
      <point x="696" y="831" type="curve" smooth="yes"/>
      <point x="627" y="840"/>
      <point x="571" y="848"/>
      <point x="532" y="854" type="curve" smooth="yes"/>
      <point x="385" y="877"/>
      <point x="326" y="958"/>
      <point x="326" y="1040" type="curve" smooth="yes"/>
      <point x="326" y="1180"/>
      <point x="434" y="1249"/>
      <point x="569" y="1249" type="curve" smooth="yes"/>
      <point x="698" y="1249"/>
      <point x="823" y="1204"/>
      <point x="930" y="1137" type="curve"/>
      <point x="1053" y="1319" type="line"/>
      <point x="920" y="1407"/>
      <point x="760" y="1470"/>
      <point x="580" y="1470" type="curve" smooth="yes"/>
      <point x="279" y="1470"/>
      <point x="104" y="1294"/>
      <point x="104" y="1044" type="curve" smooth="yes"/>
      <point x="104" y="834"/>
      <point x="240" y="670"/>
      <point x="492" y="635" type="curve" smooth="yes"/>
      <point x="567" y="625"/>
      <point x="618" y="616"/>
      <point x="684" y="608" type="curve" smooth="yes"/>
      <point x="815" y="592"/>
      <point x="874" y="514"/>
      <point x="874" y="412" type="curve" smooth="yes"/>
      <point x="874" y="291"/>
      <point x="766" y="209"/>
      <point x="586" y="209" type="curve" smooth="yes"/>
      <point x="430" y="209"/>
      <point x="283" y="266"/>
      <point x="172" y="354" type="curve"/>
    </contour>
    <contour>
      <point x="471" y="1530" type="line"/>
      <point x="705" y="1530" type="line"/>
      <point x="922" y="1829" type="line"/>
      <point x="725" y="1829" type="line"/>
      <point x="588" y="1653" type="line"/>
      <point x="451" y="1829" type="line"/>
      <point x="254" y="1829" type="line"/>
    </contour>
  </outline>
</glyph>
<glyph name="Zcaron" format="1">
  <advance width="1063"/>
  <unicode hex="017D"/>
  <outline>
    <contour>
      <point x="66" y="0" type="line"/>
      <point x="997" y="0" type="line"/>
      <point x="997" y="209" type="line"/>
      <point x="334" y="209" type="line"/>
      <point x="997" y="1292" type="line"/>
      <point x="997" y="1458" type="line"/>
      <point x="92" y="1458" type="line"/>
      <point x="92" y="1262" type="line"/>
      <point x="727" y="1262" type="line"/>
      <point x="66" y="184" type="line"/>
    </contour>
    <contour>
      <point x="416" y="1530" type="line"/>
      <point x="649" y="1530" type="line"/>
      <point x="866" y="1829" type="line"/>
      <point x="670" y="1829" type="line"/>
      <point x="532" y="1653" type="line"/>
      <point x="395" y="1829" type="line"/>
      <point x="199" y="1829" type="line"/>
    </contour>
  </outline>
</glyph>
<glyph name="zcaron" format="1">
  <advance width="909"/>
  <unicode hex="017E"/>
  <outline>
    <contour>
      <point x="68" y="0" type="line"/>
      <point x="842" y="0" type="line"/>
      <point x="842" y="197" type="line"/>
      <point x="322" y="197" type="line"/>
      <point x="842" y="872" type="line"/>
      <point x="842" y="1038" type="line"/>
      <point x="96" y="1038" type="line"/>
      <point x="96" y="854" type="line"/>
      <point x="588" y="854" type="line"/>
      <point x="68" y="166" type="line"/>
    </contour>
    <contour>
      <point x="338" y="1171" type="line"/>
      <point x="571" y="1171" type="line"/>
      <point x="788" y="1470" type="line"/>
      <point x="592" y="1470" type="line"/>
      <point x="455" y="1294" type="line"/>
      <point x="317" y="1470" type="line"/>
      <point x="121" y="1470" type="line"/>
    </contour>
  </outline>
</glyph>
<glyph name="florin" format="1">
  <advance width="1245"/>
  <unicode hex="0192"/>
  <outline>
    <contour>
      <point x="1171" y="1212" type="curve"/>
      <point x="1183" y="1488" type="line"/>
      <point x="1125" y="1499"/>
      <point x="1056" y="1504"/>
      <point x="1004" y="1504" type="curve" smooth="yes"/>
      <point x="777" y="1504"/>
      <point x="557" y="1441"/>
      <point x="501" y="1082" type="curve" smooth="yes"/>
      <point x="471" y="887" type="line"/>
      <point x="292" y="887" type="line"/>
      <point x="283" y="674" type="line"/>
      <point x="440" y="674" type="line"/>
      <point x="390" y="342" type="line"/>
      <point x="380.194" y="207.98"/>
      <point x="336.013" y="18"/>
      <point x="204" y="18" type="curve" smooth="yes"/>
      <point x="136" y="18"/>
      <point x="81" y="38"/>
      <point x="50" y="38" type="curve"/>
      <point x="37" y="-237" type="line"/>
      <point x="82" y="-247"/>
      <point x="177" y="-256"/>
      <point x="231" y="-256" type="curve" smooth="yes"/>
      <point x="480" y="-256"/>
      <point x="673" y="-141"/>
      <point x="723" y="183" type="curve" smooth="yes"/>
      <point x="800" y="674" type="line"/>
      <point x="1058" y="674" type="line"/>
      <point x="1067" y="887" type="line"/>
      <point x="834" y="887" type="line"/>
      <point x="853" y="1038" type="line"/>
      <point x="866" y="1133"/>
      <point x="886" y="1229"/>
      <point x="1024" y="1229" type="curve" smooth="yes"/>
      <point x="1082" y="1229"/>
      <point x="1150" y="1214"/>
    </contour>
  </outline>
</glyph>
<glyph name="breve" format="1">
  <advance width="894"/>
  <unicode hex="02D8"/>
  <outline>
    <contour>
      <point x="820" y="1568" type="curve"/>
      <point x="627" y="1568" type="line"/>
      <point x="619" y="1464"/>
      <point x="569" y="1394"/>
      <point x="451" y="1394" type="curve" smooth="yes"/>
      <point x="320" y="1394"/>
      <point x="282" y="1469"/>
      <point x="273" y="1568" type="curve"/>
      <point x="82" y="1568" type="line"/>
      <point x="86" y="1341"/>
      <point x="209" y="1220"/>
      <point x="451" y="1220" type="curve" smooth="yes"/>
      <point x="674" y="1220"/>
      <point x="816" y="1341"/>
    </contour>
  </outline>
</glyph>
<glyph name="ogonek" format="1">
  <advance width="898"/>
  <unicode hex="02DB"/>
  <outline>
    <contour>
      <point x="571" y="-289" type="curve" smooth="yes"/>
      <point x="488.671" y="-289"/>
      <point x="442.954" y="-237.344"/>
      <point x="446" y="-149" type="curve"/>
      <point x="451" y="-99"/>
      <point x="474" y="-44"/>
      <point x="512" y="4" type="curve"/>
      <point x="361" y="4" type="line"/>
      <point x="323" y="-40"/>
      <point x="286" y="-92"/>
      <point x="274" y="-162" type="curve"/>
      <point x="268" y="-190"/>
      <point x="267" y="-218"/>
      <point x="270" y="-249" type="curve"/>
      <point x="286.937" y="-355.916"/>
      <point x="377.939" y="-431"/>
      <point x="503" y="-431" type="curve"/>
      <point x="515" y="-432"/>
      <point x="529" y="-432"/>
      <point x="541" y="-432" type="curve" smooth="yes"/>
      <point x="595" y="-429"/>
      <point x="652" y="-419"/>
      <point x="708" y="-399" type="curve"/>
      <point x="697" y="-260" type="line"/>
      <point x="673" y="-269"/>
      <point x="630" y="-289"/>
    </contour>
  </outline>
</glyph>
<glyph name="emdash" format="1">
  <advance width="1949"/>
  <unicode hex="2014"/>
  <outline>
    <contour>
      <point x="1996" y="497" type="line"/>
      <point x="1996" y="759" type="line"/>
      <point x="-47" y="759" type="line"/>
      <point x="-47" y="497" type="line"/>
    </contour>
  </outline>
</glyph>
<glyph name="quoteleft" format="1">
  <advance width="564"/>
  <unicode hex="2018"/>
  <outline>
    <contour>
      <point x="469" y="1005" type="line"/>
      <point x="359" y="1523" type="line"/>
      <point x="24" y="1468" type="line"/>
      <point x="219" y="1005" type="line"/>
    </contour>
  </outline>
</glyph>
<glyph name="quotedblleft" format="1">
  <advance width="944"/>
  <unicode hex="201C"/>
  <outline>
    <contour>
      <point x="447" y="1005" type="line"/>
      <point x="337" y="1523" type="line"/>
      <point x="1" y="1468" type="line"/>
      <point x="196" y="1005" type="line"/>
    </contour>
    <contour>
      <point x="870" y="1005" type="line"/>
      <point x="759" y="1523" type="line"/>
      <point x="424" y="1468" type="line"/>
      <point x="618" y="1005" type="line"/>
    </contour>
  </outline>
</glyph>
<glyph name="ellipsis" format="1">
  <advance width="2240"/>
  <unicode hex="2026"/>
  <outline>
    <contour>
      <point x="1292" y="-3" type="curve"/>
      <point x="1292" y="121"/>
      <point x="1294" y="246"/>
      <point x="1296" y="373" type="curve"/>
      <point x="1182" y="373"/>
      <point x="1064" y="375"/>
      <point x="949" y="377" type="curve"/>
      <point x="949" y="252"/>
      <point x="947" y="128"/>
      <point x="944" y="0" type="curve"/>
      <point x="1059" y="0"/>
      <point x="1176" y="-1"/>
    </contour>
    <contour>
      <point x="550" y="0" type="line"/>
      <point x="547" y="76"/>
      <point x="544" y="149"/>
      <point x="544" y="224" type="curve" smooth="yes"/>
      <point x="544" y="271"/>
      <point x="547" y="322"/>
      <point x="550" y="373" type="curve"/>
      <point x="198" y="373" type="line"/>
      <point x="200" y="297"/>
      <point x="201" y="225"/>
      <point x="201" y="150" type="curve" smooth="yes"/>
      <point x="201" y="102"/>
      <point x="200" y="52"/>
      <point x="198" y="0" type="curve"/>
    </contour>
    <contour>
      <point x="2044" y="0" type="line"/>
      <point x="2043" y="77"/>
      <point x="2039" y="150"/>
      <point x="2039" y="226" type="curve" smooth="yes"/>
      <point x="2039" y="274"/>
      <point x="2040" y="322"/>
      <point x="2044" y="373" type="curve"/>
      <point x="1691" y="373" type="line"/>
      <point x="1692" y="309"/>
      <point x="1694" y="246"/>
      <point x="1694" y="182" type="curve" smooth="yes"/>
      <point x="1694" y="161"/>
      <point x="1695" y="140"/>
      <point x="1695" y="118" type="curve" smooth="yes"/>
      <point x="1695" y="80"/>
      <point x="1692" y="41"/>
      <point x="1691" y="0" type="curve"/>
    </contour>
  </outline>
</glyph>
<glyph name="guilsinglleft" format="1">
  <advance width="797"/>
  <unicode hex="2039"/>
  <outline>
    <contour>
      <point x="640" y="142" type="curve"/>
      <point x="640" y="241"/>
      <point x="641" y="338"/>
      <point x="643" y="436" type="curve"/>
      <point x="610" y="461"/>
      <point x="578" y="489"/>
      <point x="544" y="515" type="curve" smooth="yes"/>
      <point x="401" y="629" type="line"/>
      <point x="645" y="820" type="line"/>
      <point x="647" y="1116" type="line"/>
      <point x="116" y="690" type="line" smooth="yes"/>
      <point x="125" y="696" type="line"/>
      <point x="106" y="583" type="line"/>
      <point x="284.854" y="436.854"/>
      <point x="463.783" y="290.783"/>
    </contour>
  </outline>
</glyph>
<glyph name="Euro" format="1">
  <advance width="1244"/>
  <unicode hex="20AC"/>
  <outline>
    <contour>
      <point x="1175" y="60" type="curve"/>
      <point x="1175" y="381" type="line"/>
      <point x="1148" y="367"/>
      <point x="1113" y="356"/>
      <point x="1062" y="356" type="curve"/>
      <point x="958" y="287"/>
      <point x="869" y="252"/>
      <point x="812" y="254" type="curve"/>
      <point x="671" y="263"/>
      <point x="584" y="329"/>
      <point x="530" y="468" type="curve"/>
      <point x="936" y="468" type="line"/>
      <point x="978" y="665" type="line"/>
      <point x="482" y="665" type="line"/>
      <point x="479" y="690"/>
      <point x="479" y="714"/>
      <point x="479" y="740" type="curve" smooth="yes"/>
      <point x="479" y="789" type="line"/>
      <point x="1003" y="789" type="line"/>
      <point x="1044" y="985" type="line"/>
      <point x="520" y="985" type="line"/>
      <point x="572" y="1147"/>
      <point x="666" y="1225"/>
      <point x="834" y="1225" type="curve" smooth="yes"/>
      <point x="895" y="1225"/>
      <point x="968" y="1192"/>
      <point x="1062" y="1122" type="curve"/>
      <point x="1113" y="1122"/>
      <point x="1149" y="1110"/>
      <point x="1175" y="1096" type="curve"/>
      <point x="1175" y="1415" type="line"/>
      <point x="1051" y="1465"/>
      <point x="908" y="1502"/>
      <point x="765" y="1502" type="curve" smooth="yes"/>
      <point x="414" y="1502"/>
      <point x="187" y="1312"/>
      <point x="116" y="985" type="curve"/>
      <point x="18" y="985" type="line"/>
      <point x="-25" y="789" type="line"/>
      <point x="89" y="789" type="line"/>
      <point x="89" y="740" type="line" smooth="yes"/>
      <point x="89" y="715"/>
      <point x="89" y="689"/>
      <point x="92" y="665" type="curve"/>
      <point x="18" y="665" type="line"/>
      <point x="-25" y="468" type="line"/>
      <point x="123" y="468" type="line"/>
      <point x="206" y="127"/>
      <point x="432" y="-24"/>
      <point x="782" y="-24" type="curve"/>
      <point x="934" y="-14"/>
      <point x="1063" y="12"/>
    </contour>
  </outline>
</glyph>
<glyph name="afii61289" format="1">
  <advance width="899"/>
  <unicode hex="2113"/>
  <outline>
    <contour>
      <point x="784" y="336" type="line"/>
      <point x="735" y="250"/>
      <point x="657" y="158"/>
      <point x="557" y="158" type="curve" smooth="yes"/>
      <point x="461" y="158"/>
      <point x="387" y="240"/>
      <point x="385" y="432" type="curve"/>
      <point x="385" y="528" type="line"/>
      <point x="598" y="762"/>
      <point x="737" y="1001"/>
      <point x="737" y="1243" type="curve" smooth="yes"/>
      <point x="737" y="1440"/>
      <point x="662" y="1585"/>
      <point x="502" y="1585" type="curve" smooth="yes"/>
      <point x="342" y="1585"/>
      <point x="193" y="1446"/>
      <point x="193" y="1094" type="curve" smooth="yes"/>
      <point x="193" y="551" type="line"/>
      <point x="150" y="502"/>
      <point x="100" y="461"/>
      <point x="45" y="410" type="curve"/>
      <point x="96" y="297" type="line"/>
      <point x="129" y="326"/>
      <point x="164" y="358"/>
      <point x="195" y="383" type="curve"/>
      <point x="195" y="358" type="line"/>
      <point x="203" y="164"/>
      <point x="287" y="-4"/>
      <point x="514" y="-4" type="curve" smooth="yes"/>
      <point x="655" y="-4"/>
      <point x="780" y="72"/>
      <point x="866" y="252" type="curve"/>
    </contour>
    <contour>
      <point x="385" y="1081" type="line" smooth="yes"/>
      <point x="385" y="1352"/>
      <point x="449" y="1434"/>
      <point x="510" y="1434" type="curve" smooth="yes"/>
      <point x="588" y="1434"/>
      <point x="616" y="1366"/>
      <point x="616" y="1251" type="curve" smooth="yes"/>
      <point x="616" y="1083"/>
      <point x="518" y="897"/>
      <point x="385" y="725" type="curve"/>
    </contour>
  </outline>
</glyph>
<glyph name="trademark" format="1">
  <advance width="1869"/>
  <unicode hex="2122"/>
  <outline>
    <contour>
      <point x="706" y="1314" type="line"/>
      <point x="706" y="1479" type="line"/>
      <point x="65" y="1479" type="line"/>
      <point x="65" y="1314" type="line"/>
      <point x="284" y="1314" type="line"/>
      <point x="284" y="723" type="line"/>
      <point x="486" y="723" type="line"/>
      <point x="486" y="1314" type="line"/>
    </contour>
    <contour>
      <point x="1771" y="723" type="line"/>
      <point x="1771" y="1479" type="line"/>
      <point x="1473" y="1479" type="line"/>
      <point x="1301" y="1046" type="line"/>
      <point x="1135" y="1479" type="line"/>
      <point x="823" y="1479" type="line"/>
      <point x="823" y="723" type="line"/>
      <point x="1013" y="723" type="line"/>
      <point x="1013" y="1308" type="line"/>
      <point x="1032" y="1308" type="line"/>
      <point x="1232" y="830" type="line"/>
      <point x="1367" y="830" type="line"/>
      <point x="1566" y="1303" type="line"/>
      <point x="1581" y="1303" type="line"/>
      <point x="1581" y="723" type="line"/>
    </contour>
  </outline>
</glyph>
<glyph name="Omega" format="1">
  <advance width="1513"/>
  <unicode hex="2126"/>
  <outline>
    <contour>
      <point x="92" y="814" type="curve" smooth="yes"/>
      <point x="92" y="553.082"/>
      <point x="214.167" y="332.25"/>
      <point x="401" y="229" type="curve"/>
      <point x="82" y="229" type="line"/>
      <point x="82" y="0" type="line"/>
      <point x="650" y="0" type="line"/>
      <point x="650" y="211" type="line"/>
      <point x="475" y="358"/>
      <point x="396" y="535"/>
      <point x="396" y="765" type="curve" smooth="yes"/>
      <point x="396" y="1037"/>
      <point x="547" y="1214"/>
      <point x="761" y="1214" type="curve" smooth="yes"/>
      <point x="976" y="1214"/>
      <point x="1116" y="1018"/>
      <point x="1116" y="775" type="curve" smooth="yes"/>
      <point x="1116" y="529"/>
      <point x="1019" y="340"/>
      <point x="860" y="211" type="curve"/>
      <point x="860" y="0" type="line"/>
      <point x="1428" y="0" type="line"/>
      <point x="1428" y="229" type="line"/>
      <point x="1182" y="229" type="line"/>
      <point x="1104" y="231" type="line"/>
      <point x="1301" y="357"/>
      <point x="1421" y="560"/>
      <point x="1421" y="823" type="curve" smooth="yes"/>
      <point x="1421" y="1173"/>
      <point x="1163" y="1456"/>
      <point x="757" y="1456" type="curve" smooth="yes"/>
      <point x="368" y="1456"/>
      <point x="92" y="1193"/>
    </contour>
  </outline>
</glyph>
<glyph name="Delta" format="1">
  <advance width="1163"/>
  <unicode hex="2206"/>
  <outline>
    <contour>
      <point x="53" y="0" type="line"/>
      <point x="1108" y="0" type="line"/>
      <point x="1108" y="131" type="line"/>
      <point x="702" y="1460" type="line"/>
      <point x="471" y="1460" type="line"/>
      <point x="53" y="127" type="line"/>
    </contour>
    <contour>
      <point x="254" y="168" type="line"/>
      <point x="479" y="858" type="line"/>
      <point x="508" y="975"/>
      <point x="561" y="1122"/>
      <point x="578" y="1204" type="curve"/>
      <point x="584" y="1204" type="line"/>
      <point x="602" y="1110"/>
      <point x="662" y="946"/>
      <point x="690" y="831" type="curve"/>
      <point x="901" y="168" type="line"/>
    </contour>
  </outline>
</glyph>
<glyph name="summation" format="1">
  <advance width="1254"/>
  <unicode hex="2211"/>
  <outline>
    <contour>
      <point x="1209" y="-371" type="line"/>
      <point x="1209" y="-132" type="line"/>
      <point x="442" y="-132" type="line"/>
      <point x="442" y="-130" type="line" smooth="yes"/>
      <point x="959" y="556" type="line"/>
      <point x="798.062" y="770.729"/>
      <point x="641.798" y="990.131"/>
      <point x="477" y="1201" type="curve"/>
      <point x="1176" y="1201" type="line"/>
      <point x="1176" y="1433" type="line"/>
      <point x="75" y="1433" type="line"/>
      <point x="75" y="1261" type="line"/>
      <point x="626" y="538" type="line"/>
      <point x="52" y="-207" type="line"/>
      <point x="52" y="-371" type="line"/>
    </contour>
  </outline>
</glyph>
<glyph name="f_i" format="1">
  <advance width="1063"/>
  <unicode hex="FB01"/>
  <outline>
    <contour>
      <point x="168" y="0" type="line"/>
      <point x="377" y="0" type="line"/>
      <point x="377" y="879" type="line"/>
      <point x="586" y="879" type="line"/>
      <point x="586" y="1038" type="line"/>
      <point x="377" y="1038" type="line"/>
      <point x="377" y="1176" type="line" smooth="yes"/>
      <point x="377" y="1239"/>
      <point x="399" y="1262"/>
      <point x="467" y="1262" type="curve" smooth="yes"/>
      <point x="586" y="1262" type="line"/>
      <point x="586" y="1458" type="line"/>
      <point x="451" y="1458" type="line" smooth="yes"/>
      <point x="289" y="1458"/>
      <point x="168" y="1370"/>
      <point x="168" y="1176" type="curve" smooth="yes"/>
      <point x="168" y="1038" type="line"/>
      <point x="63" y="1038" type="line"/>
      <point x="63" y="879" type="line"/>
      <point x="168" y="879" type="line"/>
    </contour>
    <contour>
      <point x="713" y="0" type="line"/>
      <point x="922" y="0" type="line"/>
      <point x="922" y="1038" type="line"/>
      <point x="713" y="1038" type="line"/>
    </contour>
    <contour>
      <point x="713" y="1249" type="line"/>
      <point x="922" y="1249" type="line"/>
      <point x="922" y="1458" type="line"/>
      <point x="713" y="1458" type="line"/>
    </contour>
  </outline>
</glyph>
